<svg width="24" height="24" viewBox="0 0 24 24" fill="none" xmlns="http://www.w3.org/2000/svg">
<g opacity="0.3">
<path d="M12.5819 23.2599L12.5939 23.2579C12.6019 23.2593 12.6073 23.2653 12.6099 23.2759L12.6269 23.7029L12.6229 23.7199L12.6109 23.7359L12.5069 23.8099L12.4949 23.8139L12.4799 23.8099L12.3759 23.7359L12.3659 23.7229L12.3609 23.7029L12.3779 23.2749L12.3819 23.2649C12.3873 23.2583 12.3953 23.2563 12.4059 23.2589L12.4769 23.2949L12.4909 23.2989L12.5109 23.2949L12.5819 23.2599Z" fill="#AE49FD"/>
<path d="M12.8439 23.1469L12.8579 23.1449C12.8679 23.1469 12.8746 23.1543 12.8779 23.1669L12.9119 23.7809L12.9079 23.7949C12.9013 23.8036 12.8916 23.8063 12.8789 23.8029L12.6779 23.7109L12.6699 23.7029L12.6649 23.6909L12.6469 23.2609L12.6499 23.2499L12.6599 23.2399L12.8439 23.1469Z" fill="#AE49FD"/>
<path d="M12.1282 23.1445C12.1333 23.1434 12.1385 23.1443 12.1429 23.1469L12.3269 23.2389L12.3369 23.2489L12.3399 23.2609L12.3219 23.6909L12.3189 23.7019L12.3089 23.7099L12.1079 23.8029L12.0929 23.8049C12.0823 23.8009 12.0766 23.7929 12.0759 23.7809L12.1099 23.1669L12.1159 23.1529C12.1188 23.1487 12.1232 23.1456 12.1282 23.1445Z" fill="#AE49FD"/>
<path d="M9.10698 5.44797C9.70498 3.69797 12.123 3.64497 12.832 5.28897L12.892 5.44897L13.699 7.80897C13.8839 8.35021 14.1828 8.84548 14.5754 9.2614C14.968 9.67731 15.4453 10.0042 15.975 10.22L16.192 10.301L18.552 11.107C20.302 11.705 20.355 14.123 18.712 14.832L18.552 14.892L16.192 15.699C15.6506 15.8838 15.1551 16.1826 14.739 16.5752C14.3229 16.9679 13.9959 17.4452 13.78 17.975L13.699 18.191L12.893 20.552C12.295 22.302 9.87698 22.355 9.16898 20.712L9.10698 20.552L8.30098 18.192C8.11616 17.6506 7.81735 17.1551 7.42472 16.739C7.03209 16.3229 6.55478 15.9959 6.02498 15.78L5.80898 15.699L3.44898 14.893C1.69798 14.295 1.64498 11.877 3.28898 11.169L3.44898 11.107L5.80898 10.301C6.35022 10.116 6.84549 9.81717 7.26141 9.42454C7.67732 9.03192 8.00419 8.55466 8.21998 8.02497L8.30098 7.80897L9.10698 5.44797Z" fill="#AE49FD"/>
</g>
<path d="M19.5305 1.15147C19.3717 1.05248 19.1884 1 19.0013 1C18.7926 0.999875 18.589 1.06509 18.4192 1.1865C18.2493 1.30791 18.1217 1.47943 18.0543 1.677L17.7043 2.704L16.6783 3.054L16.5603 3.102C16.3825 3.18906 16.2345 3.32696 16.1351 3.49821C16.0357 3.66947 15.9894 3.86638 16.002 4.06398C16.0147 4.26158 16.0857 4.45099 16.2061 4.60819C16.3265 4.76538 16.4908 4.8833 16.6783 4.947L17.7053 5.297L18.0553 6.323L18.1033 6.44C18.1903 6.61787 18.3281 6.76591 18.4993 6.86538C18.6705 6.96484 18.8674 7.01125 19.065 6.99872C19.2626 6.98619 19.452 6.91529 19.6092 6.79499C19.7665 6.6747 19.8845 6.51043 19.9483 6.323L20.2983 5.296L21.3243 4.946L21.4423 4.898C21.6202 4.81094 21.7681 4.67304 21.8675 4.50179C21.9669 4.33053 22.0132 4.13362 22.0006 3.93602C21.988 3.73842 21.9169 3.54902 21.7965 3.39182C21.6762 3.23462 21.5118 3.1167 21.3243 3.053L20.2973 2.703L19.9473 1.677L19.8993 1.56C19.817 1.392 19.6892 1.25046 19.5305 1.15147Z" fill="#AE49FD"/>
</svg>
