<svg width="20" height="20" viewBox="0 0 20 20" fill="none" xmlns="http://www.w3.org/2000/svg">
<path d="M0 10C0 4.47715 4.47715 0 10 0V0C15.5228 0 20 4.47715 20 10V10C20 15.5228 15.5228 20 10 20V20C4.47715 20 0 15.5228 0 10V10Z" fill="#34D399" fill-opacity="0.1"/>
<g clip-path="url(#clip0_330_8014)">
<g opacity="0.3">
<path d="M7.9375 13.4375C7.9333 13.6751 7.98413 13.9104 8.086 14.125H5.1875C5.1875 14.125 4.5 14.125 4.5 13.4375C4.5 12.75 5.1875 10.6875 7.9375 10.6875C8.38848 10.682 8.83756 10.7469 9.2685 10.88C8.405 11.5469 7.9375 12.5059 7.9375 13.4375Z" fill="#34D399"/>
<path d="M8.80909 9.49659C8.48676 9.81892 8.04959 10 7.59375 10C7.13791 10 6.70074 9.81892 6.37841 9.49659C6.05608 9.17426 5.875 8.73709 5.875 8.28125C5.875 7.82541 6.05608 7.38824 6.37841 7.06591C6.70074 6.74358 7.13791 6.5625 7.59375 6.5625C8.04959 6.5625 8.48676 6.74358 8.80909 7.06591C9.13142 7.38824 9.3125 7.82541 9.3125 8.28125C9.3125 8.73709 9.13142 9.17426 8.80909 9.49659Z" fill="#34D399"/>
</g>
<path d="M9.3125 14.125C9.3125 14.125 8.625 14.125 8.625 13.4375C8.625 12.75 9.3125 10.6875 12.0625 10.6875C14.8125 10.6875 15.5 12.75 15.5 13.4375C15.5 14.125 14.8125 14.125 14.8125 14.125H9.3125ZM12.0625 10C12.6095 10 13.1341 9.7827 13.5209 9.39591C13.9077 9.00911 14.125 8.48451 14.125 7.9375C14.125 7.39049 13.9077 6.86589 13.5209 6.47909C13.1341 6.0923 12.6095 5.875 12.0625 5.875C11.5155 5.875 10.9909 6.0923 10.6041 6.47909C10.2173 6.86589 10 7.39049 10 7.9375C10 8.48451 10.2173 9.00911 10.6041 9.39591C10.9909 9.7827 11.5155 10 12.0625 10Z" fill="#34D399"/>
</g>
<defs>
<clipPath id="clip0_330_8014">
<rect width="11" height="11" fill="white" transform="translate(4.5 4.5)"/>
</clipPath>
</defs>
</svg>
