<svg width="20" height="20" viewBox="0 0 20 20" fill="none" xmlns="http://www.w3.org/2000/svg">
<path d="M0 10C0 4.47715 4.47715 0 10 0V0C15.5228 0 20 4.47715 20 10V10C20 15.5228 15.5228 20 10 20V20C4.47715 20 0 15.5228 0 10V10Z" fill="#AE49FD" fill-opacity="0.1"/>
<path d="M9.99984 7.25C10.1214 7.25 10.238 7.29829 10.3239 7.38424C10.4099 7.4702 10.4582 7.58678 10.4582 7.70833V9.73508L11.4198 10.2906C11.5242 10.3518 11.6001 10.4518 11.6311 10.5688C11.662 10.6858 11.6454 10.8103 11.5849 10.9152C11.5244 11.02 11.4248 11.0966 11.308 11.1283C11.1912 11.16 11.0666 11.1442 10.9614 11.0844L9.77067 10.3969C9.701 10.3567 9.64314 10.2988 9.60291 10.2292C9.56268 10.1595 9.54151 10.0805 9.5415 10V7.70833C9.5415 7.58678 9.58979 7.4702 9.67575 7.38424C9.7617 7.29829 9.87828 7.25 9.99984 7.25Z" fill="#AE49FD"/>
<path opacity="0.3" d="M5.4165 10.0001C5.4165 10.9066 5.68531 11.7927 6.18893 12.5464C6.69256 13.3002 7.40838 13.8876 8.24587 14.2345C9.08337 14.5814 10.0049 14.6722 10.894 14.4953C11.7831 14.3185 12.5998 13.882 13.2407 13.241C13.8817 12.6 14.3183 11.7833 14.4951 10.8942C14.672 10.0052 14.5812 9.08361 14.2343 8.24612C13.8874 7.40862 13.2999 6.6928 12.5462 6.18918C11.7925 5.68556 10.9063 5.41675 9.99984 5.41675C9.39795 5.41675 8.80195 5.5353 8.24587 5.76563C7.6898 5.99597 7.18453 6.33357 6.75893 6.75918C5.89939 7.61872 5.4165 8.78451 5.4165 10.0001ZM9.5415 7.70841C9.5415 7.58686 9.58979 7.47028 9.67575 7.38432C9.7617 7.29837 9.87828 7.25008 9.99984 7.25008C10.1214 7.25008 10.238 7.29837 10.3239 7.38432C10.4099 7.47028 10.4582 7.58686 10.4582 7.70841V9.73516L11.4198 10.2907C11.5242 10.3519 11.6001 10.4519 11.6311 10.5689C11.662 10.6859 11.6454 10.8104 11.5849 10.9152C11.5244 11.02 11.4248 11.0967 11.308 11.1284C11.1912 11.1601 11.0666 11.1443 10.9614 11.0845L9.77067 10.397C9.701 10.3568 9.64314 10.2989 9.60291 10.2292C9.56268 10.1596 9.54151 10.0805 9.5415 10.0001V7.70841Z" fill="#AE49FD"/>
</svg>
