<svg width="24" height="24" viewBox="0 0 24 24" fill="none" xmlns="http://www.w3.org/2000/svg">
<path opacity="0.3" d="M18.7499 9V9.704C18.7499 10.549 18.9899 11.375 19.4419 12.078L20.5499 13.801C21.5609 15.375 20.7889 17.514 19.0299 18.011C14.4337 19.3127 9.56623 19.3127 4.96994 18.011C3.21094 17.514 2.43894 15.375 3.44994 13.801L4.55794 12.078C5.01115 11.3692 5.25165 10.5453 5.25094 9.704V9C5.25094 5.134 8.27294 2 11.9999 2C15.7269 2 18.7499 5.134 18.7499 9Z" fill="#9CA3AF"/>
<path d="M7.24304 18.545C7.56979 19.5492 8.20593 20.4241 9.06034 21.0446C9.91475 21.6651 10.9436 21.9992 11.9995 21.9992C13.0555 21.9992 14.0843 21.6651 14.9387 21.0446C15.7932 20.4241 16.4293 19.5492 16.756 18.545C13.611 19.135 10.389 19.135 7.24304 18.545Z" fill="#9CA3AF"/>
</svg>
