<svg width="14" height="14" viewBox="0 0 14 14" fill="none" xmlns="http://www.w3.org/2000/svg">
<path opacity="0.3" d="M12.8334 5.83329H1.16669V11.0833C1.16669 11.5474 1.35106 11.9925 1.67925 12.3207C2.00744 12.6489 2.45256 12.8333 2.91669 12.8333H11.0834C11.5475 12.8333 11.9926 12.6489 12.3208 12.3207C12.649 11.9925 12.8334 11.5474 12.8334 11.0833V5.83329ZM4.08335 4.66663C3.92864 4.66663 3.78027 4.60517 3.67088 4.49577C3.56148 4.38638 3.50002 4.238 3.50002 4.08329V1.74996C3.50002 1.59525 3.56148 1.44688 3.67088 1.33748C3.78027 1.22808 3.92864 1.16663 4.08335 1.16663C4.23806 1.16663 4.38644 1.22808 4.49583 1.33748C4.60523 1.44688 4.66669 1.59525 4.66669 1.74996V4.08329C4.66669 4.238 4.60523 4.38638 4.49583 4.49577C4.38644 4.60517 4.23806 4.66663 4.08335 4.66663ZM9.91669 4.66663C9.76198 4.66663 9.6136 4.60517 9.50421 4.49577C9.39481 4.38638 9.33335 4.238 9.33335 4.08329V1.74996C9.33335 1.59525 9.39481 1.44688 9.50421 1.33748C9.6136 1.22808 9.76198 1.16663 9.91669 1.16663C10.0714 1.16663 10.2198 1.22808 10.3292 1.33748C10.4386 1.44688 10.5 1.59525 10.5 1.74996V4.08329C10.5 4.238 10.4386 4.38638 10.3292 4.49577C10.2198 4.60517 10.0714 4.66663 9.91669 4.66663Z" fill="#99A1AF"/>
<path d="M11.0834 2.33337H10.5V4.08337C10.5 4.23808 10.4386 4.38646 10.3292 4.49585C10.2198 4.60525 10.0714 4.66671 9.91669 4.66671C9.76198 4.66671 9.6136 4.60525 9.50421 4.49585C9.39481 4.38646 9.33335 4.23808 9.33335 4.08337V2.33337H4.66669V4.08337C4.66669 4.23808 4.60523 4.38646 4.49583 4.49585C4.38644 4.60525 4.23806 4.66671 4.08335 4.66671C3.92864 4.66671 3.78027 4.60525 3.67088 4.49585C3.56148 4.38646 3.50002 4.23808 3.50002 4.08337V2.33337H2.91669C2.45256 2.33337 2.00744 2.51775 1.67925 2.84594C1.35106 3.17413 1.16669 3.61925 1.16669 4.08337V5.83337H12.8334V4.08337C12.8334 3.61925 12.649 3.17413 12.3208 2.84594C11.9926 2.51775 11.5475 2.33337 11.0834 2.33337Z" fill="#99A1AF"/>
</svg>
