<svg width="14" height="14" viewBox="0 0 14 14" fill="none" xmlns="http://www.w3.org/2000/svg">
<path d="M7.00002 3.5C7.15473 3.5 7.3031 3.56146 7.4125 3.67085C7.5219 3.78025 7.58335 3.92862 7.58335 4.08333V6.66283L8.80719 7.36983C8.94007 7.44774 9.03675 7.57504 9.07613 7.72396C9.1155 7.87289 9.09437 8.03134 9.01735 8.16474C8.94033 8.29814 8.81367 8.39566 8.66501 8.43602C8.51635 8.47638 8.35776 8.4563 8.22385 8.38017L6.70835 7.50517C6.61968 7.45397 6.54604 7.38033 6.49484 7.29166C6.44364 7.20298 6.41669 7.10239 6.41669 7V4.08333C6.41669 3.92862 6.47815 3.78025 6.58754 3.67085C6.69694 3.56146 6.84531 3.5 7.00002 3.5Z" fill="#99A1AF"/>
<path opacity="0.3" d="M1.16669 6.99996C1.16669 8.15368 1.50881 9.2815 2.14978 10.2408C2.79076 11.2001 3.7018 11.9477 4.7677 12.3893C5.8336 12.8308 7.00649 12.9463 8.13805 12.7212C9.2696 12.4961 10.309 11.9406 11.1248 11.1247C11.9406 10.3089 12.4962 9.26954 12.7213 8.13799C12.9463 7.00643 12.8308 5.83354 12.3893 4.76764C11.9478 3.70174 11.2001 2.79069 10.2408 2.14972C9.28156 1.50875 8.15374 1.16663 7.00002 1.16663C6.23398 1.16663 5.47543 1.31751 4.7677 1.61066C4.05997 1.90381 3.41691 2.33349 2.87523 2.87517C1.78127 3.96913 1.16669 5.45286 1.16669 6.99996ZM6.41669 4.08329C6.41669 3.92858 6.47815 3.78021 6.58754 3.67081C6.69694 3.56142 6.84531 3.49996 7.00002 3.49996C7.15473 3.49996 7.3031 3.56142 7.4125 3.67081C7.5219 3.78021 7.58335 3.92858 7.58335 4.08329V6.66279L8.80719 7.36979C8.94007 7.4477 9.03675 7.575 9.07613 7.72392C9.1155 7.87285 9.09437 8.0313 9.01735 8.1647C8.94033 8.2981 8.81367 8.39562 8.66501 8.43598C8.51635 8.47634 8.35776 8.45626 8.22385 8.38013L6.70835 7.50513C6.61968 7.45393 6.54604 7.38029 6.49484 7.29162C6.44364 7.20294 6.41669 7.10235 6.41669 6.99996V4.08329Z" fill="#99A1AF"/>
</svg>
