<svg width="24" height="24" viewBox="0 0 24 24" fill="none" xmlns="http://www.w3.org/2000/svg">
<path d="M4.923 8.25C3.999 8.25 3.25 8.999 3.25 9.923V17C3.25 18.2598 3.75045 19.468 4.64124 20.3588C5.53204 21.2496 6.74022 21.75 8 21.75H14C15.2598 21.75 16.468 21.2496 17.3588 20.3588C18.2496 19.468 18.75 18.2598 18.75 17V15.75H19.5C20.362 15.75 21.1886 15.4076 21.7981 14.7981C22.4076 14.1886 22.75 13.362 22.75 12.5C22.75 11.638 22.4076 10.8114 21.7981 10.2019C21.1886 9.59241 20.362 9.25 19.5 9.25H18.59C18.346 8.694 17.825 8.25 17.077 8.25H4.923Z" fill="#AE49FD"/>
<path d="M10.7389 3.14477C10.7189 3.24191 10.6797 3.33411 10.6238 3.41603L8.62382 6.41603C8.51248 6.57913 8.3413 6.69173 8.14744 6.7294C7.95358 6.76706 7.75269 6.72675 7.58837 6.6172C7.42406 6.50766 7.30958 6.33773 7.26978 6.14429C7.22999 5.95086 7.26809 5.74954 7.37582 5.58403L9.37582 2.58403C9.42993 2.5009 9.49999 2.42933 9.58194 2.37346C9.6639 2.31759 9.75612 2.27853 9.85327 2.25855C9.95042 2.23856 10.0506 2.23804 10.1479 2.25703C10.2453 2.27601 10.3379 2.31411 10.4204 2.36913C10.5029 2.42414 10.5737 2.49499 10.6287 2.57755C10.6837 2.66011 10.7217 2.75276 10.7406 2.85012C10.7595 2.94749 10.759 3.04764 10.7389 3.14477Z" fill="#AE49FD" fill-opacity="0.3"/>
<path d="M13.7389 3.14477C13.7189 3.24191 13.6797 3.33411 13.6238 3.41603L11.6238 6.41603C11.5697 6.49915 11.4997 6.57072 11.4177 6.62659C11.3357 6.68246 11.2435 6.72152 11.1464 6.7415C11.0492 6.76149 10.9491 6.76201 10.8517 6.74303C10.7544 6.72404 10.6618 6.68594 10.5792 6.63092C10.4967 6.57591 10.4259 6.50506 10.3709 6.4225C10.316 6.33994 10.2779 6.24729 10.259 6.14993C10.2401 6.05256 10.2407 5.95241 10.2607 5.85528C10.2808 5.75814 10.3199 5.66594 10.3758 5.58403L12.3758 2.58403C12.4299 2.5009 12.5 2.42933 12.5819 2.37346C12.6639 2.31759 12.7561 2.27853 12.8533 2.25855C12.9504 2.23856 13.0506 2.23804 13.1479 2.25703C13.2453 2.27601 13.3379 2.31411 13.4204 2.36913C13.5029 2.42414 13.5737 2.49499 13.6287 2.57755C13.6837 2.66011 13.7217 2.75276 13.7406 2.85012C13.7595 2.94749 13.759 3.04764 13.7389 3.14477Z" fill="#AE49FD" fill-opacity="0.3"/>
<path d="M16.7389 3.14477C16.7189 3.24191 16.6797 3.33411 16.6238 3.41603L14.6238 6.41603C14.5697 6.49915 14.4997 6.57072 14.4177 6.62659C14.3357 6.68246 14.2435 6.72152 14.1464 6.7415C14.0492 6.76149 13.9491 6.76201 13.8517 6.74303C13.7544 6.72404 13.6618 6.68594 13.5792 6.63092C13.4967 6.57591 13.4259 6.50506 13.3709 6.4225C13.316 6.33994 13.2779 6.24729 13.259 6.14993C13.2401 6.05256 13.2407 5.95241 13.2607 5.85528C13.2808 5.75814 13.3199 5.66594 13.3758 5.58403L15.3758 2.58403C15.4299 2.5009 15.5 2.42933 15.5819 2.37346C15.6639 2.31759 15.7561 2.27853 15.8533 2.25855C15.9504 2.23856 16.0506 2.23804 16.1479 2.25703C16.2453 2.27601 16.3379 2.31411 16.4204 2.36913C16.5029 2.42414 16.5737 2.49499 16.6287 2.57755C16.6837 2.66011 16.7217 2.75276 16.7406 2.85012C16.7595 2.94749 16.759 3.04764 16.7389 3.14477Z" fill="#AE49FD" fill-opacity="0.3"/>
</svg>
