<svg width="20" height="20" viewBox="0 0 20 20" fill="none" xmlns="http://www.w3.org/2000/svg">
<path d="M0 10C0 4.47715 4.47715 0 10 0V0C15.5228 0 20 4.47715 20 10V10C20 15.5228 15.5228 20 10 20V20C4.47715 20 0 15.5228 0 10V10Z" fill="#3182F6" fill-opacity="0.1"/>
<path d="M6.75654 8.28125C6.33304 8.28125 5.98975 8.62454 5.98975 9.04804V12.2917C5.98975 12.8691 6.21912 13.4228 6.6274 13.8311C7.03568 14.2394 7.58943 14.4688 8.16683 14.4688H10.9168C11.4942 14.4688 12.048 14.2394 12.4563 13.8311C12.8645 13.4228 13.0939 12.8691 13.0939 12.2917V11.7188H13.4377C13.8327 11.7188 14.2116 11.5618 14.491 11.2825C14.7703 11.0031 14.9272 10.6242 14.9272 10.2292C14.9272 9.8341 14.7703 9.45522 14.491 9.17587C14.2116 8.89652 13.8327 8.73958 13.4377 8.73958H13.0206C12.9087 8.48475 12.67 8.28125 12.3271 8.28125H6.75654Z" fill="#3182F6"/>
<path d="M9.42227 5.94131C9.41308 5.98584 9.39515 6.02809 9.36952 6.06564L8.45285 7.44064C8.40182 7.51539 8.32336 7.567 8.23451 7.58427C8.14566 7.60153 8.05358 7.58305 7.97827 7.53284C7.90296 7.48264 7.85049 7.40475 7.83225 7.31609C7.81401 7.22744 7.83147 7.13516 7.88085 7.0593L8.79752 5.6843C8.82232 5.6462 8.85443 5.6134 8.89199 5.5878C8.92955 5.56219 8.97182 5.54429 9.01635 5.53513C9.06087 5.52597 9.10678 5.52573 9.1514 5.53443C9.19602 5.54313 9.23847 5.56059 9.27629 5.58581C9.31412 5.61103 9.34656 5.64349 9.37176 5.68134C9.39695 5.71918 9.41438 5.76164 9.42305 5.80627C9.43172 5.85089 9.43146 5.89679 9.42227 5.94131Z" fill="#3182F6" fill-opacity="0.3"/>
<path d="M10.7973 5.94131C10.7881 5.98584 10.7701 6.02809 10.7445 6.06564L9.82785 7.44064C9.80305 7.47874 9.77094 7.51154 9.73338 7.53715C9.69582 7.56275 9.65355 7.58065 9.60902 7.58981C9.56449 7.59897 9.51859 7.59921 9.47397 7.59051C9.42935 7.58181 9.3869 7.56435 9.34908 7.53913C9.31125 7.51392 9.2788 7.48145 9.25361 7.44361C9.22842 7.40576 9.21098 7.3633 9.20231 7.31868C9.19364 7.27405 9.19391 7.22815 9.2031 7.18363C9.21229 7.13911 9.23022 7.09685 9.25585 7.0593L10.1725 5.6843C10.1973 5.6462 10.2294 5.6134 10.267 5.5878C10.3046 5.56219 10.3468 5.54429 10.3913 5.53513C10.4359 5.52597 10.4818 5.52573 10.5264 5.53443C10.571 5.54313 10.6135 5.56059 10.6513 5.58581C10.6891 5.61103 10.7216 5.64349 10.7468 5.68134C10.7719 5.71918 10.7894 5.76164 10.7981 5.80627C10.8067 5.85089 10.8065 5.89679 10.7973 5.94131Z" fill="#3182F6" fill-opacity="0.3"/>
<path d="M12.1723 5.94131C12.1631 5.98584 12.1451 6.02809 12.1195 6.06564L11.2028 7.44064C11.1781 7.47874 11.1459 7.51154 11.1084 7.53715C11.0708 7.56275 11.0285 7.58065 10.984 7.58981C10.9395 7.59897 10.8936 7.59921 10.849 7.59051C10.8044 7.58181 10.7619 7.56435 10.7241 7.53913C10.6863 7.51392 10.6538 7.48145 10.6286 7.44361C10.6034 7.40576 10.586 7.3633 10.5773 7.31868C10.5686 7.27405 10.5689 7.22815 10.5781 7.18363C10.5873 7.13911 10.6052 7.09685 10.6309 7.0593L11.5475 5.6843C11.5723 5.6462 11.6044 5.6134 11.642 5.5878C11.6796 5.56219 11.7218 5.54429 11.7663 5.53513C11.8109 5.52597 11.8568 5.52573 11.9014 5.53443C11.946 5.54313 11.9885 5.56059 12.0263 5.58581C12.0641 5.61103 12.0966 5.64349 12.1218 5.68134C12.1469 5.71918 12.1644 5.76164 12.1731 5.80627C12.1817 5.85089 12.1815 5.89679 12.1723 5.94131Z" fill="#3182F6" fill-opacity="0.3"/>
</svg>
