<svg width="24" height="24" viewBox="0 0 24 24" fill="none" xmlns="http://www.w3.org/2000/svg">
<path opacity="0.3" d="M7 3V4C7 4.53043 7.21071 5.03914 7.58579 5.41421C7.96086 5.78929 8.46957 6 9 6H15C15.5304 6 16.0391 5.78929 16.4142 5.41421C16.7893 5.03914 17 4.53043 17 4V3H18C18.5304 3 19.0391 3.21071 19.4142 3.58579C19.7893 3.96086 20 4.46957 20 5V16C20 17.5913 19.3679 19.1174 18.2426 20.2426C17.1174 21.3679 15.5913 22 14 22H6C5.46957 22 4.96086 21.7893 4.58579 21.4142C4.21071 21.0391 4 20.5304 4 20V5C4 4.46957 4.21071 3.96086 4.58579 3.58579C4.96086 3.21071 5.46957 3 6 3H7Z" fill="#9CA3AF"/>
<path d="M14 2C14.2549 2.00028 14.5 2.09788 14.6854 2.27285C14.8707 2.44782 14.9822 2.68695 14.9972 2.94139C15.0121 3.19584 14.9293 3.44638 14.7657 3.64183C14.6021 3.83729 14.3701 3.9629 14.117 3.993L14 4H10C9.74512 3.99972 9.49997 3.90212 9.31463 3.72715C9.1293 3.55218 9.01776 3.31305 9.00283 3.05861C8.98789 2.80416 9.07067 2.55362 9.23426 2.35817C9.39785 2.16271 9.6299 2.0371 9.883 2.007L10 2H14ZM15 10H9C8.74512 10.0003 8.49997 10.0979 8.31463 10.2728C8.1293 10.4478 8.01776 10.687 8.00283 10.9414C7.98789 11.1958 8.07067 11.4464 8.23426 11.6418C8.39785 11.8373 8.6299 11.9629 8.883 11.993L9 12H15C15.2652 12 15.5196 11.8946 15.7071 11.7071C15.8946 11.5196 16 11.2652 16 11C16 10.7348 15.8946 10.4804 15.7071 10.2929C15.5196 10.1054 15.2652 10 15 10ZM12 14H9C8.73478 14 8.48043 14.1054 8.29289 14.2929C8.10536 14.4804 8 14.7348 8 15C8 15.2652 8.10536 15.5196 8.29289 15.7071C8.48043 15.8946 8.73478 16 9 16H12C12.2652 16 12.5196 15.8946 12.7071 15.7071C12.8946 15.5196 13 15.2652 13 15C13 14.7348 12.8946 14.4804 12.7071 14.2929C12.5196 14.1054 12.2652 14 12 14Z" fill="#9CA3AF"/>
</svg>
