<svg width="24" height="24" viewBox="0 0 24 24" fill="none" xmlns="http://www.w3.org/2000/svg">
<path opacity="0.5" d="M21 22C20.7348 21.9999 20.4805 21.8946 20.293 21.707L16.586 18H5C4.20459 17.9992 3.44199 17.6829 2.87956 17.1204C2.31712 16.558 2.00079 15.7954 2 15V5C2.00079 4.20459 2.31712 3.44199 2.87956 2.87956C3.44199 2.31712 4.20459 2.00079 5 2H19C19.7954 2.00079 20.558 2.31712 21.1204 2.87956C21.6829 3.44199 21.9992 4.20459 22 5V21C22 21.2652 21.8946 21.5196 21.7071 21.7071C21.5196 21.8946 21.2652 22 21 22Z" fill="#9CA3AF"/>
</svg>
