<svg width="16" height="16" viewBox="0 0 16 16" fill="none" xmlns="http://www.w3.org/2000/svg">
<path d="M13.3333 1.33337H6.66659C5.93021 1.33337 5.33325 1.93033 5.33325 2.66671V9.33337C5.33325 10.0698 5.93021 10.6667 6.66659 10.6667H13.3333C14.0696 10.6667 14.6666 10.0698 14.6666 9.33337V2.66671C14.6666 1.93033 14.0696 1.33337 13.3333 1.33337Z" fill="#AE49FD"/>
<path opacity="0.5" d="M5.66659 12C5.22456 12 4.80063 11.8244 4.48807 11.5118C4.17551 11.1993 3.99992 10.7753 3.99992 10.3333V5.33331H2.66659C1.93325 5.33331 1.33325 5.93331 1.33325 6.66665V13.3333C1.33325 14.0666 1.93325 14.6666 2.66659 14.6666H9.33325C10.0666 14.6666 10.6666 14.0666 10.6666 13.3333V12H5.66659Z" fill="#AE49FD"/>
</svg>
