<svg width="16" height="16" viewBox="0 0 16 16" fill="none" xmlns="http://www.w3.org/2000/svg">
<path d="M8.00004 8.66663C8.36823 8.66663 8.66671 8.36815 8.66671 7.99996C8.66671 7.63177 8.36823 7.33329 8.00004 7.33329C7.63185 7.33329 7.33337 7.63177 7.33337 7.99996C7.33337 8.36815 7.63185 8.66663 8.00004 8.66663Z" fill="#99A1AF"/>
<path d="M8.00004 3.99996C8.36823 3.99996 8.66671 3.70148 8.66671 3.33329C8.66671 2.9651 8.36823 2.66663 8.00004 2.66663C7.63185 2.66663 7.33337 2.9651 7.33337 3.33329C7.33337 3.70148 7.63185 3.99996 8.00004 3.99996Z" fill="#99A1AF"/>
<path d="M8.00004 13.3333C8.36823 13.3333 8.66671 13.0348 8.66671 12.6666C8.66671 12.2984 8.36823 12 8.00004 12C7.63185 12 7.33337 12.2984 7.33337 12.6666C7.33337 13.0348 7.63185 13.3333 8.00004 13.3333Z" fill="#99A1AF"/>
<path d="M8.00004 8.66663C8.36823 8.66663 8.66671 8.36815 8.66671 7.99996C8.66671 7.63177 8.36823 7.33329 8.00004 7.33329C7.63185 7.33329 7.33337 7.63177 7.33337 7.99996C7.33337 8.36815 7.63185 8.66663 8.00004 8.66663Z" stroke="#99A1AF" stroke-linecap="round" stroke-linejoin="round"/>
<path d="M8.00004 3.99996C8.36823 3.99996 8.66671 3.70148 8.66671 3.33329C8.66671 2.9651 8.36823 2.66663 8.00004 2.66663C7.63185 2.66663 7.33337 2.9651 7.33337 3.33329C7.33337 3.70148 7.63185 3.99996 8.00004 3.99996Z" stroke="#99A1AF" stroke-linecap="round" stroke-linejoin="round"/>
<path d="M8.00004 13.3333C8.36823 13.3333 8.66671 13.0348 8.66671 12.6666C8.66671 12.2984 8.36823 12 8.00004 12C7.63185 12 7.33337 12.2984 7.33337 12.6666C7.33337 13.0348 7.63185 13.3333 8.00004 13.3333Z" stroke="#99A1AF" stroke-linecap="round" stroke-linejoin="round"/>
</svg>
