<svg width="16" height="16" viewBox="0 0 16 16" fill="none" xmlns="http://www.w3.org/2000/svg">
<path opacity="0.3" d="M1.61341 8.47549C1.52262 8.33173 1.47723 8.25985 1.45182 8.14898C1.43273 8.06571 1.43273 7.93437 1.45182 7.8511C1.47723 7.74023 1.52262 7.66835 1.61341 7.52459C2.36369 6.3366 4.59693 3.33337 8.00027 3.33337C11.4036 3.33337 13.6369 6.3366 14.3871 7.52459C14.4779 7.66835 14.5233 7.74023 14.5487 7.8511C14.5678 7.93437 14.5678 8.06571 14.5487 8.14898C14.5233 8.25985 14.4779 8.33173 14.3871 8.47549C13.6369 9.66348 11.4036 12.6667 8.00027 12.6667C4.59693 12.6667 2.36369 9.66348 1.61341 8.47549Z" fill="#9CA3AF" stroke="#9CA3AF" stroke-width="1.5" stroke-linecap="round" stroke-linejoin="round"/>
<path d="M8.00024 10C9.10481 10 10.0002 9.10457 10.0002 8C10.0002 6.89543 9.10481 6 8.00024 6C6.89567 6 6.00024 6.89543 6.00024 8C6.00024 9.10457 6.89567 10 8.00024 10Z" fill="#9CA3AF" stroke="#9CA3AF" stroke-width="1.5" stroke-linecap="round" stroke-linejoin="round"/>
</svg>
