<svg width="24" height="24" viewBox="0 0 24 24" fill="none" xmlns="http://www.w3.org/2000/svg">
<g opacity="0.3">
<path d="M7.5 19.5C7.49084 20.0183 7.60174 20.5317 7.824 21H1.5C1.5 21 0 21 0 19.5C0 18 1.5 13.5 7.5 13.5C8.48396 13.4879 9.46377 13.6297 10.404 13.92C8.52 15.375 7.5 17.4675 7.5 19.5Z" fill="#9CA3AF"/>
<path d="M9.40165 10.9017C8.69839 11.6049 7.74456 12 6.75 12C5.75544 12 4.80161 11.6049 4.09835 10.9017C3.39509 10.1984 3 9.24456 3 8.25C3 7.25544 3.39509 6.30161 4.09835 5.59835C4.80161 4.89509 5.75544 4.5 6.75 4.5C7.74456 4.5 8.69839 4.89509 9.40165 5.59835C10.1049 6.30161 10.5 7.25544 10.5 8.25C10.5 9.24456 10.1049 10.1984 9.40165 10.9017Z" fill="#9CA3AF"/>
</g>
<path d="M10.5 21C10.5 21 9 21 9 19.5C9 18 10.5 13.5 16.5 13.5C22.5 13.5 24 18 24 19.5C24 21 22.5 21 22.5 21H10.5ZM16.5 12C17.6935 12 18.8381 11.5259 19.682 10.682C20.5259 9.83807 21 8.69347 21 7.5C21 6.30653 20.5259 5.16193 19.682 4.31802C18.8381 3.47411 17.6935 3 16.5 3C15.3065 3 14.1619 3.47411 13.318 4.31802C12.4741 5.16193 12 6.30653 12 7.5C12 8.69347 12.4741 9.83807 13.318 10.682C14.1619 11.5259 15.3065 12 16.5 12Z" fill="#9CA3AF"/>
</svg>
