<svg width="24" height="24" viewBox="0 0 24 24" fill="none" xmlns="http://www.w3.org/2000/svg">
<path opacity="0.3" d="M2 12.204C2 9.915 2 8.771 2.52 7.823C3.038 6.874 3.987 6.286 5.884 5.108L7.884 3.867C9.889 2.622 10.892 2 12 2C13.108 2 14.11 2.622 16.116 3.867L18.116 5.108C20.013 6.286 20.962 6.874 21.481 7.823C22 8.772 22 9.915 22 12.203V13.725C22 17.625 22 19.576 20.828 20.788C19.656 22 17.771 22 14 22H10C6.229 22 4.343 22 3.172 20.788C2.001 19.576 2 17.626 2 13.725V12.204Z" fill="#9CA3AF"/>
<path d="M11 18.1667C11 18.3877 11.1054 18.5996 11.2929 18.7559C11.4804 18.9122 11.7348 19 12 19C12.2652 19 12.5196 18.9122 12.7071 18.7559C12.8946 18.5996 13 18.3877 13 18.1667V14.8333C13 14.6123 12.8946 14.4004 12.7071 14.2441C12.5196 14.0878 12.2652 14 12 14C11.7348 14 11.4804 14.0878 11.2929 14.2441C11.1054 14.4004 11 14.6123 11 14.8333V18.1667Z" fill="#9CA3AF"/>
</svg>
