<svg width="24" height="24" viewBox="0 0 24 24" fill="none" xmlns="http://www.w3.org/2000/svg">
<path fill-rule="evenodd" clip-rule="evenodd" d="M2.5 10.343C2.5 4.95852 6.865 0.593018 12.25 0.593018C17.635 0.593018 22 4.95902 22 10.3435C22 13.8375 20.197 16.7765 18.237 18.945C16.271 21.121 14.074 22.603 13.1185 23.198C12.8584 23.3618 12.5573 23.4487 12.25 23.4487C11.9427 23.4487 11.6416 23.3618 11.3815 23.198C10.4265 22.603 8.229 21.121 6.263 18.945C4.303 16.776 2.5 13.837 2.5 10.343Z" fill="#9CA3AF" fill-opacity="0.3"/>
<path fill-rule="evenodd" clip-rule="evenodd" d="M12 14.5C13.0609 14.5 14.0783 14.0786 14.8284 13.3284C15.5786 12.5783 16 11.5609 16 10.5C16 9.43913 15.5786 8.42172 14.8284 7.67157C14.0783 6.92143 13.0609 6.5 12 6.5C10.9391 6.5 9.92172 6.92143 9.17157 7.67157C8.42143 8.42172 8 9.43913 8 10.5C8 11.5609 8.42143 12.5783 9.17157 13.3284C9.92172 14.0786 10.9391 14.5 12 14.5Z" fill="#9CA3AF"/>
</svg>
