<svg width="24" height="24" viewBox="0 0 24 24" fill="none" xmlns="http://www.w3.org/2000/svg">
<path d="M6.5 21C6.5 21 5 21 5 19.5C5 18 6.5 13.5 12.5 13.5C18.5 13.5 20 18 20 19.5C20 21 18.5 21 18.5 21H6.5ZM12.5 12C13.6935 12 14.8381 11.5259 15.682 10.682C16.5259 9.83807 17 8.69347 17 7.5C17 6.30653 16.5259 5.16193 15.682 4.31802C14.8381 3.47411 13.6935 3 12.5 3C11.3065 3 10.1619 3.47411 9.31802 4.31802C8.47411 5.16193 8 6.30653 8 7.5C8 8.69347 8.47411 9.83807 9.31802 10.682C10.1619 11.5259 11.3065 12 12.5 12Z" fill="#9CA3AF"/>
</svg>
