<svg width="24" height="24" viewBox="0 0 24 24" fill="none" xmlns="http://www.w3.org/2000/svg">
<path opacity="0.3" fill-rule="evenodd" clip-rule="evenodd" d="M12 1C13.4445 0.999993 14.8749 1.28451 16.2095 1.83731C17.5441 2.39011 18.7567 3.20036 19.7782 4.2218C20.7996 5.24324 21.6099 6.45587 22.1627 7.79045C22.7155 9.12504 23 10.5554 23 12C23 18.0751 18.0751 23 12 23C5.92489 23 1 18.0751 1 12C1 5.92489 5.92489 1 12 1ZM13.1 13.1H10.9C8.57752 13.1 6.53527 14.2996 5.35895 16.113C4.97904 16.6987 5.06533 17.4627 5.53945 17.9751C7.14696 19.7124 9.44646 20.8 12 20.8C14.5535 20.8 16.853 19.7123 18.4606 17.975C18.9347 17.4626 19.0209 16.6985 18.641 16.1129C17.4647 14.2996 15.4225 13.1 13.1 13.1ZM12 4.3C10.1774 4.3 8.69998 5.77747 8.69998 7.6C8.69998 9.42252 10.1774 10.9 12 10.9C13.8225 10.9 15.3 9.42252 15.3 7.6C15.3 5.77747 13.8226 4.3 12 4.3Z" fill="#9CA3AF"/>
<path d="M13.1205 12.3895C15.585 12.3897 17.7466 13.7536 18.9571 15.8025C19.2976 16.3787 19.2181 17.1045 18.7827 17.6129C17.1074 19.5692 14.6782 20.7994 11.976 20.7994C9.27389 20.7994 6.84465 19.5691 5.16931 17.6129C4.73394 17.1045 4.65442 16.3787 4.99488 15.8025C6.2054 13.7536 8.3671 12.3897 10.8315 12.3895H13.1205Z" fill="#9CA3AF"/>
<path d="M12 4.29944C13.8224 4.29944 15.2997 5.77719 15.3 7.59944C15.3 9.42196 13.8225 10.8994 12 10.8994C10.1775 10.8994 8.70001 9.42195 8.70001 7.59944C8.70034 5.7772 10.1777 4.29947 12 4.29944Z" fill="#9CA3AF"/>
</svg>
