<svg width="24" height="24" viewBox="0 0 24 24" fill="none" xmlns="http://www.w3.org/2000/svg">
<path d="M17.7369 14.622L15.3109 16.852C14.0634 17.9396 12.5976 18.7477 11.0119 19.222L11.6559 22.226C11.6889 22.3793 11.7574 22.5227 11.8559 22.6446C11.9545 22.7666 12.0803 22.8636 12.2233 22.9279C12.3663 22.9923 12.5224 23.0221 12.679 23.015C12.8356 23.0079 12.9884 22.964 13.1249 22.887L17.0299 20.685C17.5797 20.351 18.0091 19.8511 18.2562 19.2572C18.5034 18.6634 18.5554 18.0064 18.4049 17.381L17.7369 14.622ZM7.26594 8.776L9.35394 6.296L6.74994 5.668C6.11665 5.4477 5.42508 5.46371 4.80267 5.71309C4.18025 5.96246 3.66894 6.42838 3.36294 7.025L1.16294 10.925C1.08592 11.0616 1.04208 11.2143 1.03496 11.3709C1.02785 11.5276 1.05767 11.6837 1.122 11.8266C1.18634 11.9696 1.28339 12.0955 1.40532 12.194C1.52726 12.2926 1.67066 12.3611 1.82394 12.394L4.89694 13.053C5.40675 11.4894 6.21085 10.0376 7.26594 8.776ZM16.7339 8.816C17.0306 8.816 17.3206 8.72802 17.5673 8.5632C17.814 8.39838 18.0062 8.16411 18.1198 7.89002C18.2333 7.61593 18.263 7.31433 18.2051 7.02336C18.1472 6.73239 18.0044 6.46512 17.7946 6.25534C17.5848 6.04556 17.3176 5.9027 17.0266 5.84482C16.7356 5.78694 16.434 5.81665 16.1599 5.93018C15.8858 6.04371 15.6516 6.23597 15.4867 6.48264C15.3219 6.72932 15.2339 7.01933 15.2339 7.316C15.2339 7.71382 15.392 8.09535 15.6733 8.37666C15.9546 8.65796 16.3361 8.816 16.7339 8.816Z" fill="#9CA3AF"/>
<path opacity="0.3" d="M22.601 2.06201C22.556 1.89065 22.4662 1.73434 22.341 1.60906C22.2157 1.48378 22.0594 1.39404 21.888 1.34901C19.8368 0.816106 17.6768 0.873447 15.6567 1.51442C13.6366 2.1554 11.8387 3.35394 10.47 4.97201L7.26602 8.77601C5.6659 10.6847 4.65061 13.0145 4.34202 15.486C4.32205 15.638 4.33728 15.7925 4.38652 15.9376C4.43577 16.0827 4.51771 16.2146 4.62602 16.323L7.72602 19.423C7.81897 19.516 7.92935 19.5897 8.05084 19.64C8.17233 19.6903 8.30254 19.7161 8.43402 19.716L8.52002 19.712C11.0297 19.5044 13.4081 18.5026 15.31 16.852L18.974 13.484C20.5982 12.119 21.8012 10.3209 22.4431 8.29875C23.0851 6.27666 23.1405 4.11382 22.601 2.06201ZM16.734 8.81601C16.4373 8.81601 16.1473 8.72803 15.9007 8.56321C15.654 8.39839 15.4617 8.16412 15.3482 7.89003C15.2347 7.61594 15.205 7.31434 15.2628 7.02337C15.3207 6.7324 15.4636 6.46512 15.6734 6.25534C15.8831 6.04557 16.1504 5.90271 16.4414 5.84483C16.7324 5.78695 17.034 5.81665 17.308 5.93019C17.5821 6.04372 17.8164 6.23598 17.9812 6.48265C18.146 6.72932 18.234 7.01933 18.234 7.31601C18.234 7.71383 18.076 8.09536 17.7947 8.37667C17.5134 8.65797 17.1318 8.81601 16.734 8.81601Z" fill="#9CA3AF"/>
</svg>
