<svg width="24" height="24" viewBox="0 0 24 24" fill="none" xmlns="http://www.w3.org/2000/svg">
<path d="M18.483 16.7671C17.1162 17.0953 15.6893 17.0794 14.3301 16.7208C12.9709 16.3622 11.7219 15.6721 10.6948 14.7124C9.6678 13.7526 8.89481 12.5531 8.44511 11.2213C7.9954 9.88951 7.883 8.46696 8.11799 7.08105C8.08279 7.11615 8.04502 7.14858 8.00499 7.17805C7.72499 7.39105 7.37499 7.47005 6.67499 7.62805L6.03999 7.77205C3.57999 8.32905 2.34999 8.60706 2.05699 9.54806C1.76499 10.4881 2.60299 11.4691 4.27999 13.4301L4.71399 13.9371C5.18999 14.4941 5.42899 14.7731 5.53599 15.1171C5.64299 15.4621 5.60699 15.8341 5.53499 16.5771L5.46899 17.2541C5.21599 19.8711 5.08899 21.1791 5.85499 21.7601C6.62099 22.3411 7.77299 21.8121 10.075 20.7511L10.672 20.4771C11.326 20.1751 11.653 20.0251 12 20.0251C12.347 20.0251 12.674 20.1751 13.329 20.4771L13.924 20.7511C16.227 21.8111 17.379 22.3411 18.144 21.7611C18.911 21.1791 18.784 19.8711 18.531 17.2541L18.483 16.7671Z" fill="#9CA3AF"/>
<path opacity="0.3" d="M9.15294 5.408L8.82494 5.996C8.46494 6.642 8.28494 6.965 8.00494 7.178C8.04494 7.148 8.08261 7.11567 8.11794 7.081C7.8829 8.46701 7.99528 9.88967 8.44504 11.2216C8.8948 12.5535 9.66788 13.7531 10.695 14.7128C11.7222 15.6726 12.9714 16.3627 14.3307 16.7212C15.69 17.0797 17.117 17.0954 18.4839 16.767L18.4639 16.577C18.3929 15.834 18.3569 15.462 18.4639 15.117C18.5709 14.773 18.8089 14.494 19.2859 13.937L19.7199 13.43C21.3969 11.47 22.2349 10.489 21.9419 9.548C21.6499 8.607 20.4199 8.328 17.9599 7.772L17.3239 7.628C16.6249 7.47 16.2749 7.391 15.9939 7.178C15.7139 6.965 15.5339 6.642 15.1739 5.996L14.8469 5.408C13.5799 3.136 12.9469 2 11.9999 2C11.0529 2 10.4199 3.136 9.15294 5.408Z" fill="#9CA3AF"/>
</svg>
