<svg width="24" height="24" viewBox="0 0 24 24" fill="none" xmlns="http://www.w3.org/2000/svg">
<path d="M8.56595 3.94599C10.12 1.35199 13.876 1.35199 15.43 3.94599L21.424 13.956C23.018 16.62 21.098 20.01 17.992 20.01H6.00595C2.89795 20.01 0.97795 16.622 2.57395 13.956L8.56595 3.94599ZM12 13.5C11.6021 13.5 11.2206 13.658 10.9393 13.9393C10.658 14.2206 10.5 14.6022 10.5 15C10.5 15.3978 10.658 15.7793 10.9393 16.0606C11.2206 16.342 11.6021 16.5 12 16.5C12.3978 16.5 12.7793 16.342 13.0606 16.0606C13.3419 15.7793 13.5 15.3978 13.5 15C13.5 14.6022 13.3419 14.2206 13.0606 13.9393C12.7793 13.658 12.3978 13.5 12 13.5ZM12 6.99999C11.7347 6.99999 11.4804 7.10535 11.2928 7.29288C11.1053 7.48042 11 7.73477 11 7.99999V11C11 11.2652 11.1053 11.5196 11.2928 11.7071C11.4804 11.8946 11.7347 12 12 12C12.2652 12 12.5195 11.8946 12.7071 11.7071C12.8946 11.5196 13 11.2652 13 11V7.99999C13 7.73477 12.8946 7.48042 12.7071 7.29288C12.5195 7.10535 12.2652 6.99999 12 6.99999Z" fill="#EF4444"/>
</svg>
