<svg width="24" height="24" viewBox="0 0 24 24" fill="none" xmlns="http://www.w3.org/2000/svg">
<g clip-path="url(#clip0_110_5165)">
<path opacity="0.3" d="M12 0.75C5.787 0.75 0.75 5.787 0.75 12C0.75 18.213 5.787 23.25 12 23.25C18.213 23.25 23.25 18.213 23.25 12C23.25 5.787 18.213 0.75 12 0.75Z" fill="#9CA3AF"/>
<path opacity="0.5" fill-rule="evenodd" clip-rule="evenodd" d="M8.54551 16.25C8.76701 17.784 9.10351 19.1575 9.52151 20.288C9.91101 21.341 10.3565 22.1445 10.814 22.6705C11.057 22.9495 11.284 23.1305 11.4915 23.239C10.6859 23.2033 9.88649 23.0811 9.10701 22.8745C8.73201 22.2825 8.40101 21.5825 8.11451 20.808C7.63601 19.5135 7.26451 17.961 7.03101 16.25H1.58001C1.3803 15.7624 1.21588 15.2611 1.08801 14.75H6.86501C6.78786 13.8354 6.7495 12.9179 6.75001 12C6.75001 11.0595 6.79001 10.139 6.86551 9.24999H1.08851C1.21851 8.73432 1.38251 8.23432 1.58051 7.74999H7.03201C7.26651 6.03899 7.63901 4.48649 8.11851 3.19199C8.40551 2.41699 8.73701 1.71649 9.11251 1.12399C9.89123 0.918061 10.6898 0.796364 11.4945 0.760986C11.288 0.869486 11.0615 1.05049 10.8185 1.32949C10.3615 1.85599 9.91501 2.65949 9.52501 3.71249C9.10651 4.84349 8.76901 6.21649 8.54651 7.74999H15.453C15.2305 6.21649 14.893 4.84349 14.4745 3.71249C14.0845 2.65949 13.6385 1.85599 13.181 1.32949C12.9385 1.05049 12.712 0.869486 12.505 0.760986C13.325 0.797486 14.122 0.920986 14.887 1.12399C15.2625 1.71649 15.5945 2.41649 15.8815 3.19199C16.3605 4.48649 16.733 6.03899 16.9675 7.74999H22.42C22.618 8.23432 22.782 8.73432 22.912 9.24999H17.134C17.21 10.139 17.25 11.0595 17.25 12C17.25 12.9405 17.21 13.8615 17.1345 14.75H22.9115C22.7836 15.2611 22.6192 15.7624 22.4195 16.25H16.969C16.735 17.961 16.364 19.5135 15.8855 20.808C15.599 21.5825 15.2675 22.283 14.8925 22.8745C14.113 23.0811 13.3136 23.2033 12.508 23.239C12.716 23.13 12.943 22.949 13.1855 22.6705C13.643 22.1445 14.089 21.341 14.4785 20.288C14.8965 19.1575 15.2325 17.784 15.454 16.25H8.54551ZM15.75 12C15.75 11.053 15.7075 10.132 15.628 9.24999H8.37151C8.29031 10.1644 8.24977 11.082 8.25001 12C8.24961 12.918 8.28998 13.8356 8.37101 14.75H15.629C15.71 13.8356 15.7504 12.918 15.75 12Z" fill="#9CA3AF"/>
</g>
<defs>
<clipPath id="clip0_110_5165">
<rect width="24" height="24" fill="white"/>
</clipPath>
</defs>
</svg>
